<svg width="515" height="77" viewBox="0 0 515 77" fill="none" xmlns="http://www.w3.org/2000/svg">
<path d="M37.0547 45.1562H13.2266L7.875 60H0.140625L21.8594 3.125H28.4219L50.1797 60H42.4844L37.0547 45.1562ZM15.4922 38.9844H34.8281L25.1406 12.3828L15.4922 38.9844ZM54.9844 38.5156C54.9844 31.9271 56.5078 26.6927 59.5547 22.8125C62.6016 18.9062 66.638 16.9531 71.6641 16.9531C76.8203 16.9531 80.8438 18.776 83.7344 22.4219L84.0859 17.7344H90.6875V58.9844C90.6875 64.4531 89.0599 68.763 85.8047 71.9141C82.5755 75.0651 78.2266 76.6406 72.7578 76.6406C69.7109 76.6406 66.7292 75.9896 63.8125 74.6875C60.8958 73.3854 58.6693 71.6016 57.1328 69.3359L60.8828 65C63.9818 68.8281 67.7708 70.7422 72.25 70.7422C75.7656 70.7422 78.5 69.7526 80.4531 67.7734C82.4323 65.7943 83.4219 63.0078 83.4219 59.4141V55.7812C80.5312 59.1146 76.5859 60.7812 71.5859 60.7812C66.638 60.7812 62.6276 58.7891 59.5547 54.8047C56.5078 50.8203 54.9844 45.3906 54.9844 38.5156ZM62.25 39.3359C62.25 44.1016 63.2266 47.8516 65.1797 50.5859C67.1328 53.2943 69.8672 54.6484 73.3828 54.6484C77.9401 54.6484 81.2865 52.5781 83.4219 48.4375V29.1406C81.2083 25.1042 77.888 23.0859 73.4609 23.0859C69.9453 23.0859 67.1979 24.4531 65.2188 27.1875C63.2396 29.9219 62.25 33.9714 62.25 39.3359ZM137.406 39.3359C137.406 45.7943 135.922 50.9896 132.953 54.9219C129.984 58.8281 126 60.7812 121 60.7812C115.661 60.7812 111.534 58.8932 108.617 55.1172L108.266 60H101.625V0H108.852V22.3828C111.768 18.763 115.792 16.9531 120.922 16.9531C126.052 16.9531 130.076 18.8932 132.992 22.7734C135.935 26.6536 137.406 31.9661 137.406 38.7109V39.3359ZM130.18 38.5156C130.18 33.5938 129.229 29.7917 127.328 27.1094C125.427 24.4271 122.693 23.0859 119.125 23.0859C114.359 23.0859 110.935 25.2995 108.852 29.7266V48.0078C111.065 52.4349 114.516 54.6484 119.203 54.6484C122.667 54.6484 125.362 53.3073 127.289 50.625C129.216 47.9427 130.18 43.9062 130.18 38.5156ZM172.641 60C172.224 59.1667 171.885 57.6823 171.625 55.5469C168.266 59.0365 164.255 60.7812 159.594 60.7812C155.427 60.7812 152.003 59.6094 149.32 57.2656C146.664 54.8958 145.336 51.901 145.336 48.2812C145.336 43.8802 147.003 40.4688 150.336 38.0469C153.695 35.599 158.409 34.375 164.477 34.375H171.508V31.0547C171.508 28.5286 170.753 26.5234 169.242 25.0391C167.732 23.5286 165.505 22.7734 162.562 22.7734C159.984 22.7734 157.823 23.4245 156.078 24.7266C154.333 26.0286 153.461 27.6042 153.461 29.4531H146.195C146.195 27.3438 146.938 25.3125 148.422 23.3594C149.932 21.3802 151.964 19.8177 154.516 18.6719C157.094 17.526 159.919 16.9531 162.992 16.9531C167.862 16.9531 171.677 18.1771 174.438 20.625C177.198 23.0469 178.63 26.3932 178.734 30.6641V50.1172C178.734 53.9974 179.229 57.0833 180.219 59.375V60H172.641ZM160.648 54.4922C162.914 54.4922 165.062 53.9062 167.094 52.7344C169.125 51.5625 170.596 50.0391 171.508 48.1641V39.4922H165.844C156.99 39.4922 152.562 42.0833 152.562 47.2656C152.562 49.5312 153.318 51.3021 154.828 52.5781C156.339 53.8542 158.279 54.4922 160.648 54.4922ZM214.672 48.7891C214.672 46.8359 213.93 45.3255 212.445 44.2578C210.987 43.1641 208.422 42.2266 204.75 41.4453C201.104 40.6641 198.201 39.7266 196.039 38.6328C193.904 37.5391 192.315 36.237 191.273 34.7266C190.258 33.2161 189.75 31.4193 189.75 29.3359C189.75 25.8724 191.208 22.9427 194.125 20.5469C197.068 18.151 200.818 16.9531 205.375 16.9531C210.167 16.9531 214.047 18.1901 217.016 20.6641C220.01 23.138 221.508 26.3021 221.508 30.1562H214.242C214.242 28.1771 213.396 26.4714 211.703 25.0391C210.036 23.6068 207.927 22.8906 205.375 22.8906C202.745 22.8906 200.688 23.4635 199.203 24.6094C197.719 25.7552 196.977 27.2526 196.977 29.1016C196.977 30.8464 197.667 32.1615 199.047 33.0469C200.427 33.9323 202.914 34.7786 206.508 35.5859C210.128 36.3932 213.057 37.3568 215.297 38.4766C217.536 39.5964 219.19 40.9505 220.258 42.5391C221.352 44.1016 221.898 46.0156 221.898 48.2812C221.898 52.0573 220.388 55.0911 217.367 57.3828C214.346 59.6484 210.427 60.7812 205.609 60.7812C202.224 60.7812 199.229 60.1823 196.625 58.9844C194.021 57.7865 191.977 56.1198 190.492 53.9844C189.034 51.8229 188.305 49.4922 188.305 46.9922H195.531C195.661 49.4141 196.625 51.3411 198.422 52.7734C200.245 54.1797 202.641 54.8828 205.609 54.8828C208.344 54.8828 210.531 54.3359 212.172 53.2422C213.839 52.1224 214.672 50.638 214.672 48.7891ZM238.539 22.8516C241.742 18.9193 245.909 16.9531 251.039 16.9531C259.971 16.9531 264.477 21.9922 264.555 32.0703V60H257.328V32.0312C257.302 28.9844 256.599 26.7318 255.219 25.2734C253.865 23.8151 251.742 23.0859 248.852 23.0859C246.508 23.0859 244.451 23.7109 242.68 24.9609C240.909 26.2109 239.529 27.8516 238.539 29.8828V60H231.312V0H238.539V22.8516ZM313.109 34.6484C306.677 32.7995 301.99 30.5339 299.047 27.8516C296.13 25.1432 294.672 21.8099 294.672 17.8516C294.672 13.3724 296.456 9.67448 300.023 6.75781C303.617 3.8151 308.279 2.34375 314.008 2.34375C317.914 2.34375 321.391 3.09896 324.438 4.60938C327.51 6.11979 329.88 8.20312 331.547 10.8594C333.24 13.5156 334.086 16.4193 334.086 19.5703H326.547C326.547 16.1328 325.453 13.4375 323.266 11.4844C321.078 9.50521 317.992 8.51562 314.008 8.51562C310.31 8.51562 307.419 9.33594 305.336 10.9766C303.279 12.5911 302.25 14.8438 302.25 17.7344C302.25 20.0521 303.227 22.0182 305.18 23.6328C307.159 25.2214 310.505 26.6797 315.219 28.0078C319.958 29.3359 323.656 30.8073 326.312 32.4219C328.995 34.0104 330.974 35.8724 332.25 38.0078C333.552 40.1432 334.203 42.6562 334.203 45.5469C334.203 50.1562 332.406 53.8542 328.812 56.6406C325.219 59.401 320.414 60.7812 314.398 60.7812C310.492 60.7812 306.846 60.0391 303.461 58.5547C300.076 57.0443 297.458 54.987 295.609 52.3828C293.786 49.7786 292.875 46.8229 292.875 43.5156H300.414C300.414 46.9531 301.677 49.6745 304.203 51.6797C306.755 53.6589 310.154 54.6484 314.398 54.6484C318.357 54.6484 321.391 53.8411 323.5 52.2266C325.609 50.612 326.664 48.4115 326.664 45.625C326.664 42.8385 325.688 40.6901 323.734 39.1797C321.781 37.6432 318.24 36.1328 313.109 34.6484ZM352.523 7.5V17.7344H360.414V23.3203H352.523V49.5312C352.523 51.224 352.875 52.5 353.578 53.3594C354.281 54.1927 355.479 54.6094 357.172 54.6094C358.005 54.6094 359.151 54.4531 360.609 54.1406V60C358.708 60.5208 356.859 60.7812 355.062 60.7812C351.833 60.7812 349.398 59.8047 347.758 57.8516C346.117 55.8984 345.297 53.125 345.297 49.5312V23.3203H337.602V17.7344H345.297V7.5H352.523ZM394.984 55.8203C392.172 59.1276 388.044 60.7812 382.602 60.7812C378.096 60.7812 374.659 59.4792 372.289 56.875C369.945 54.2448 368.76 50.3646 368.734 45.2344V17.7344H375.961V45.0391C375.961 51.4453 378.565 54.6484 383.773 54.6484C389.294 54.6484 392.966 52.5911 394.789 48.4766V17.7344H402.016V60H395.141L394.984 55.8203ZM411.273 38.5156C411.273 32.0312 412.81 26.8229 415.883 22.8906C418.956 18.9323 422.979 16.9531 427.953 16.9531C432.901 16.9531 436.82 18.6458 439.711 22.0312V0H446.938V60H440.297L439.945 55.4688C437.055 59.0104 433.031 60.7812 427.875 60.7812C422.979 60.7812 418.982 58.776 415.883 54.7656C412.81 50.7552 411.273 45.5208 411.273 39.0625V38.5156ZM418.5 39.3359C418.5 44.1276 419.49 47.8776 421.469 50.5859C423.448 53.2943 426.182 54.6484 429.672 54.6484C434.255 54.6484 437.602 52.5911 439.711 48.4766V29.0625C437.549 25.0781 434.229 23.0859 429.75 23.0859C426.208 23.0859 423.448 24.4531 421.469 27.1875C419.49 29.9219 418.5 33.9714 418.5 39.3359ZM466.039 60H458.812V17.7344H466.039V60ZM458.227 6.52344C458.227 5.35156 458.578 4.36198 459.281 3.55469C460.01 2.7474 461.078 2.34375 462.484 2.34375C463.891 2.34375 464.958 2.7474 465.688 3.55469C466.417 4.36198 466.781 5.35156 466.781 6.52344C466.781 7.69531 466.417 8.67188 465.688 9.45312C464.958 10.2344 463.891 10.625 462.484 10.625C461.078 10.625 460.01 10.2344 459.281 9.45312C458.578 8.67188 458.227 7.69531 458.227 6.52344ZM475.727 38.4766C475.727 34.3359 476.534 30.612 478.148 27.3047C479.789 23.9974 482.055 21.4453 484.945 19.6484C487.862 17.8516 491.182 16.9531 494.906 16.9531C500.661 16.9531 505.31 18.9453 508.852 22.9297C512.419 26.9141 514.203 32.2135 514.203 38.8281V39.3359C514.203 43.4505 513.409 47.1484 511.82 50.4297C510.258 53.6849 508.005 56.224 505.062 58.0469C502.146 59.8698 498.786 60.7812 494.984 60.7812C489.255 60.7812 484.607 58.7891 481.039 54.8047C477.497 50.8203 475.727 45.5469 475.727 38.9844V38.4766ZM482.992 39.3359C482.992 44.0234 484.073 47.7865 486.234 50.625C488.422 53.4635 491.339 54.8828 494.984 54.8828C498.656 54.8828 501.573 53.4505 503.734 50.5859C505.896 47.6953 506.977 43.6589 506.977 38.4766C506.977 33.8411 505.87 30.0911 503.656 27.2266C501.469 24.3359 498.552 22.8906 494.906 22.8906C491.339 22.8906 488.461 24.3099 486.273 27.1484C484.086 29.987 482.992 34.0495 482.992 39.3359Z" fill="white"/>
</svg>
